<?xml version="1.0" encoding="UTF-8" standalone="no"?>
<!DOCTYPE svg PUBLIC "-//W3C//DTD SVG 1.1//EN"
 "http://www.w3.org/Graphics/SVG/1.1/DTD/svg11.dtd">
<!-- Generated by graphviz version 2.44.1 (20200629.0846)
 -->
<!-- Title: g Pages: 1 -->
<svg width="672pt" height="944pt"
 viewBox="0.00 0.00 672.00 944.20" xmlns="http://www.w3.org/2000/svg" xmlns:xlink="http://www.w3.org/1999/xlink">
<g id="graph0" class="graph" transform="scale(1 1) rotate(0) translate(4 940.2)">
<title>g</title>
<polygon fill="white" stroke="transparent" points="-4,4 -4,-940.2 668,-940.2 668,4 -4,4"/>
<g id="clust1" class="cluster">
<title>cluster_1035043182</title>
<polygon fill="#ececec" stroke="black" points="8,-8 8,-928.2 656,-928.2 656,-8 8,-8"/>
<text text-anchor="middle" x="33.89" y="-911.6" font-family="Times New Roman,serif" font-size="14.00">ntuhpi</text>
</g>
<g id="clust2" class="cluster">
<title>cluster_559231216</title>
<polygon fill="#d8d8d8" stroke="black" points="16,-16 16,-895.4 648,-895.4 648,-16 16,-16"/>
<text text-anchor="middle" x="38.77" y="-878.8" font-family="Times New Roman,serif" font-size="14.00">task1</text>
</g>
<!-- BinaryFileHandler1357840454 -->
<g id="node1" class="node">
<title>BinaryFileHandler1357840454</title>
<polygon fill="#ffffff" stroke="transparent" points="315.5,-122 24.5,-122 24.5,-24 315.5,-24 315.5,-122"/>
<text text-anchor="start" x="30" y="-104.4" font-family="Times New Roman,serif" font-size="14.00">(C)BinaryFileHandler</text>
<text text-anchor="start" x="30" y="-80.4" font-family="Times New Roman,serif" font-size="14.00">+ createBinaryFile(filePath: String)</text>
<text text-anchor="start" x="30" y="-56.4" font-family="Times New Roman,serif" font-size="14.00">+ readFromFile(filePath: String): Lecture[]</text>
<text text-anchor="start" x="29.52" y="-32.4" font-family="Times New Roman,serif" font-size="14.00">+ writeToFile(filePath: String, lectures: Lecture[])</text>
<polygon fill="black" stroke="black" points="25,-97 25,-97 316,-97 316,-97 25,-97"/>
<polygon fill="none" stroke="black" points="24.5,-24 24.5,-122 315.5,-122 315.5,-24 24.5,-24"/>
</g>
<!-- Course1357840454 -->
<g id="node2" class="node">
<title>Course1357840454</title>
<polygon fill="#ffffff" stroke="transparent" points="631.5,-862.6 322.5,-862.6 322.5,-716.6 631.5,-716.6 631.5,-862.6"/>
<text text-anchor="start" x="328" y="-845" font-family="Times New Roman,serif" font-size="14.00">(C)Course</text>
<text text-anchor="start" x="328" y="-821" font-family="Times New Roman,serif" font-size="14.00">&#45; &#160;&#160;name: String [0..1]</text>
<text text-anchor="start" x="328" y="-797" font-family="Times New Roman,serif" font-size="14.00">&#45; &#160;&#160;teachersLastName: String [0..1]</text>
<text text-anchor="start" x="328" y="-773" font-family="Times New Roman,serif" font-size="14.00"># findDateLectureMinNumberStudents(): String</text>
<text text-anchor="start" x="328" y="-749" font-family="Times New Roman,serif" font-size="14.00"># findLastLetterTeacherLastName(): String</text>
<text text-anchor="start" x="327.62" y="-725" font-family="Times New Roman,serif" font-size="14.00"># findTopicsWithWordInTitle(word: String): String[]</text>
<polygon fill="black" stroke="black" points="323,-837.6 323,-837.6 632,-837.6 632,-837.6 323,-837.6"/>
<polygon fill="black" stroke="black" points="323,-789.6 323,-789.6 632,-789.6 632,-789.6 323,-789.6"/>
<polygon fill="none" stroke="black" points="322.5,-716.6 322.5,-862.6 631.5,-862.6 631.5,-716.6 322.5,-716.6"/>
</g>
<!-- CourseImpl1357840454 -->
<g id="node3" class="node">
<title>CourseImpl1357840454</title>
<polygon fill="#ffffff" stroke="transparent" points="631.5,-679.6 322.5,-679.6 322.5,-461.6 631.5,-461.6 631.5,-679.6"/>
<text text-anchor="start" x="328" y="-662" font-family="Times New Roman,serif" font-size="14.00">(C)CourseImpl</text>
<text text-anchor="start" x="328" y="-638" font-family="Times New Roman,serif" font-size="14.00">&#45; &#160;&#160;lectureList: Lecture[] [0..*]</text>
<text text-anchor="start" x="328" y="-614" font-family="Times New Roman,serif" font-size="14.00">+ compareTo(other: CourseImpl): int</text>
<text text-anchor="start" x="328" y="-590" font-family="Times New Roman,serif" font-size="14.00"># findDateLectureMinNumberStudents(): String</text>
<text text-anchor="start" x="328" y="-566" font-family="Times New Roman,serif" font-size="14.00"># findLastLetterTeacherLastName(): String</text>
<text text-anchor="start" x="327.62" y="-542" font-family="Times New Roman,serif" font-size="14.00"># findTopicsWithWordInTitle(word: String): String[]</text>
<text text-anchor="start" x="328" y="-518" font-family="Times New Roman,serif" font-size="14.00">+ print()</text>
<text text-anchor="start" x="328" y="-494" font-family="Times New Roman,serif" font-size="14.00"># sortByIncreaseNumberWordsTopic()</text>
<text text-anchor="start" x="328" y="-470" font-family="Times New Roman,serif" font-size="14.00"># sortByTopicAlphabet()</text>
<polygon fill="black" stroke="black" points="323,-654.6 323,-654.6 632,-654.6 632,-654.6 323,-654.6"/>
<polygon fill="black" stroke="black" points="323,-630.6 323,-630.6 632,-630.6 632,-630.6 323,-630.6"/>
<polygon fill="none" stroke="black" points="322.5,-461.6 322.5,-679.6 631.5,-679.6 631.5,-461.6 322.5,-461.6"/>
</g>
<!-- Course1357840454&#45;&gt;CourseImpl1357840454 -->
<g id="edge1" class="edge">
<title>Course1357840454&#45;&gt;CourseImpl1357840454</title>
<path fill="none" stroke="black" d="M477,-706.32C477,-697.68 477,-688.81 477,-679.93"/>
<polygon fill="none" stroke="black" points="473.5,-706.34 477,-716.34 480.5,-706.34 473.5,-706.34"/>
</g>
<!-- CourseSort1357840454 -->
<g id="node4" class="node">
<title>CourseSort1357840454</title>
<polygon fill="#ffffff" stroke="transparent" points="409.5,-368 180.5,-368 180.5,-294 409.5,-294 409.5,-368"/>
<text text-anchor="start" x="186" y="-350.4" font-family="Times New Roman,serif" font-size="14.00">(C)CourseSort</text>
<text text-anchor="start" x="185.69" y="-326.4" font-family="Times New Roman,serif" font-size="14.00"># sortByIncreaseNumberWordsTopic()</text>
<text text-anchor="start" x="186" y="-302.4" font-family="Times New Roman,serif" font-size="14.00"># sortByTopicAlphabet()</text>
<polygon fill="black" stroke="black" points="181,-343 181,-343 410,-343 410,-343 181,-343"/>
<polygon fill="none" stroke="black" points="180.5,-294 180.5,-368 409.5,-368 409.5,-294 180.5,-294"/>
</g>
<!-- CourseImpl1357840454&#45;&gt;CourseSort1357840454 -->
<g id="edge2" class="edge">
<title>CourseImpl1357840454&#45;&gt;CourseSort1357840454</title>
<path fill="none" stroke="black" d="M387.91,-453.29C364.21,-422.35 340.33,-391.18 322.72,-368.19"/>
<polygon fill="none" stroke="black" points="385.4,-455.77 394.25,-461.58 390.95,-451.51 385.4,-455.77"/>
</g>
<!-- Lecture1357840454 -->
<g id="node7" class="node">
<title>Lecture1357840454</title>
<polygon fill="#ffffff" stroke="transparent" points="622.5,-392 427.5,-392 427.5,-270 622.5,-270 622.5,-392"/>
<text text-anchor="start" x="433" y="-374.4" font-family="Times New Roman,serif" font-size="14.00">(C)Lecture</text>
<text text-anchor="start" x="433" y="-350.4" font-family="Times New Roman,serif" font-size="14.00">&#45; &#160;&#160;data: String [0..1]</text>
<text text-anchor="start" x="433" y="-326.4" font-family="Times New Roman,serif" font-size="14.00">&#45; &#160;&#160;numberStudents: int [1]</text>
<text text-anchor="start" x="433" y="-302.4" font-family="Times New Roman,serif" font-size="14.00">&#45; &#160;&#160;topic: String [0..1]</text>
<text text-anchor="start" x="432.73" y="-278.4" font-family="Times New Roman,serif" font-size="14.00">+ compareTo(other: Lecture): int</text>
<polygon fill="black" stroke="black" points="428,-367 428,-367 623,-367 623,-367 428,-367"/>
<polygon fill="black" stroke="black" points="428,-295 428,-295 623,-295 623,-295 428,-295"/>
<polygon fill="none" stroke="black" points="427.5,-270 427.5,-392 622.5,-392 622.5,-270 427.5,-270"/>
</g>
<!-- CourseImpl1357840454&#45;&gt;Lecture1357840454 -->
<g id="edge3" class="edge">
<title>CourseImpl1357840454&#45;&gt;Lecture1357840454</title>
<path fill="none" stroke="black" d="M498.82,-461.58C502.92,-441.31 507.1,-420.63 510.88,-401.91"/>
<polygon fill="black" stroke="black" points="514.33,-402.51 512.88,-392.02 507.46,-401.12 514.33,-402.51"/>
<text text-anchor="middle" x="537.93" y="-431" font-family="Times New Roman,serif" font-size="14.00">lectureList</text>
<text text-anchor="middle" x="537.93" y="-414.2" font-family="Times New Roman,serif" font-size="14.00">[0..*]</text>
</g>
<!-- FileHandler1357840454 -->
<g id="node5" class="node">
<title>FileHandler1357840454</title>
<polygon fill="#ffffff" stroke="transparent" points="460,-233 130,-233 130,-159 460,-159 460,-233"/>
<text text-anchor="start" x="135" y="-215.4" font-family="Times New Roman,serif" font-size="14.00">(C)FileHandler</text>
<text text-anchor="start" x="135" y="-191.4" font-family="Times New Roman,serif" font-size="14.00">+ readFromFile(filePath: String): Lecture[]</text>
<text text-anchor="start" x="134.58" y="-167.4" font-family="Times New Roman,serif" font-size="14.00">+ writeToFile(filePath: String, sortedLectures: Lecture[])</text>
<polygon fill="black" stroke="black" points="130,-208 130,-208 460,-208 460,-208 130,-208"/>
<polygon fill="none" stroke="black" points="130,-159 130,-233 460,-233 460,-159 130,-159"/>
</g>
<!-- CourseSort1357840454&#45;&gt;FileHandler1357840454 -->
<g id="edge4" class="edge">
<title>CourseSort1357840454&#45;&gt;FileHandler1357840454</title>
<path fill="none" stroke="black" d="M295,-283.19C295,-266.82 295,-248.69 295,-233.3"/>
<polygon fill="none" stroke="black" points="291.5,-283.66 295,-293.66 298.5,-283.66 291.5,-283.66"/>
</g>
<!-- FileHandler1357840454&#45;&gt;BinaryFileHandler1357840454 -->
<g id="edge5" class="edge">
<title>FileHandler1357840454&#45;&gt;BinaryFileHandler1357840454</title>
<path fill="none" stroke="black" d="M250.15,-151.59C240.36,-142.11 229.94,-132.03 219.97,-122.37"/>
<polygon fill="none" stroke="black" points="247.88,-154.26 257.5,-158.7 252.75,-149.23 247.88,-154.26"/>
</g>
<!-- TextFileHandler1357840454 -->
<g id="node8" class="node">
<title>TextFileHandler1357840454</title>
<polygon fill="#ffffff" stroke="transparent" points="640,-122 334,-122 334,-24 640,-24 640,-122"/>
<text text-anchor="start" x="339" y="-104.4" font-family="Times New Roman,serif" font-size="14.00">(C)TextFileHandler</text>
<text text-anchor="start" x="338.64" y="-80.4" font-family="Times New Roman,serif" font-size="14.00">+ createTextFile(filePath: String, lectures: Lecture[])</text>
<text text-anchor="start" x="339" y="-56.4" font-family="Times New Roman,serif" font-size="14.00">+ readFromFile(filePath: String): Lecture[]</text>
<text text-anchor="start" x="339" y="-32.4" font-family="Times New Roman,serif" font-size="14.00">+ writeToFile(filePath: String, lectures: Lecture[])</text>
<polygon fill="black" stroke="black" points="334,-97 334,-97 640,-97 640,-97 334,-97"/>
<polygon fill="none" stroke="black" points="334,-24 334,-122 640,-122 640,-24 334,-24"/>
</g>
<!-- FileHandler1357840454&#45;&gt;TextFileHandler1357840454 -->
<g id="edge6" class="edge">
<title>FileHandler1357840454&#45;&gt;TextFileHandler1357840454</title>
<path fill="none" stroke="black" d="M361.1,-153.35C377.1,-143.26 394.33,-132.4 410.76,-122.05"/>
<polygon fill="none" stroke="black" points="358.94,-150.57 352.35,-158.86 362.67,-156.49 358.94,-150.57"/>
</g>
<!-- Lab41357840454 -->
<g id="node6" class="node">
<title>Lab41357840454</title>
<polygon fill="#ffffff" stroke="transparent" points="296.5,-826.6 39.5,-826.6 39.5,-752.6 296.5,-752.6 296.5,-826.6"/>
<text text-anchor="start" x="45" y="-809" font-family="Times New Roman,serif" font-size="14.00">(C)Lab4</text>
<text text-anchor="start" x="45" y="-785" font-family="Times New Roman,serif" font-size="14.00">+ main(args: String[])</text>
<text text-anchor="start" x="44.52" y="-761" font-family="Times New Roman,serif" font-size="14.00">&#45; printLectureArray(textLectures: Lecture[])</text>
<polygon fill="black" stroke="black" points="40,-801.6 40,-801.6 297,-801.6 297,-801.6 40,-801.6"/>
<polygon fill="none" stroke="black" points="39.5,-752.6 39.5,-826.6 296.5,-826.6 296.5,-752.6 39.5,-752.6"/>
</g>
</g>
</svg>
